<?xml version="1.0" standalone="no"?><!DOCTYPE svg PUBLIC "-//W3C//DTD SVG 1.1//EN" "http://www.w3.org/Graphics/SVG/1.1/DTD/svg11.dtd"><svg class="icon" width="200px" height="200.00px" viewBox="0 0 1024 1024" version="1.1" xmlns="http://www.w3.org/2000/svg"><path d="M929.1 420.9l15.6-3.5V173.2H71.8v244.5l15 3.9c40.3 10.5 68.5 47 68.5 88.7s-28.2 78.2-68.5 88.7l-15 3.9V860h872.9V603.2l-15.6-3.5c-41.4-9.3-71.4-46.9-71.4-89.4 0.1-42.5 30.1-80.1 71.4-89.4zM847 593.1c15.2 18.7 35.3 33 57.7 41.1V820H111.8V632.8c49.8-19.6 83.4-67.9 83.4-122.5 0-54.6-33.6-103-83.4-122.5V213.2h792.9v173.3c-22.5 8.1-42.6 22.4-57.7 41.1-18.9 23.3-29.3 52.7-29.3 82.8s10.4 59.4 29.3 82.7zM343.1 407.7h320.8v40H343.1zM343.1 575.9h320.8v40H343.1z" /></svg>