<?xml version="1.0" standalone="no"?><!DOCTYPE svg PUBLIC "-//W3C//DTD SVG 1.1//EN" "http://www.w3.org/Graphics/SVG/1.1/DTD/svg11.dtd"><svg class="icon" width="200px" height="200.00px" viewBox="0 0 1024 1024" version="1.1" xmlns="http://www.w3.org/2000/svg"><path d="M295.1 464.2h-49.3c-13.6 0-24.7 11-24.7 24.7 0 13.6 11 24.6 24.7 24.6h49.3v49.3c0 13.6 11 24.7 24.7 24.7 13.6 0 24.7-11 24.7-24.7v-49.3h49.3c13.6 0 24.7-11 24.7-24.6 0-13.6-11-24.7-24.7-24.7h-49.3v-49.3c0-13.6-11-24.7-24.7-24.7-13.6 0-24.7 11-24.7 24.7v49.3z"  /><path d="M242.8 890c-8.6 0-17.3-0.9-25.7-2.7C103 863 47.5 684.8 90.7 481.5 135.7 269.9 219.2 158 332.2 158c12.6 0 25.7 1.4 38.9 4.2 41.1 8.8 74.1 28.7 98.3 59.3H566c23.9-31 55.8-50.9 94.9-59.3 11.9-2.5 23.8-3.8 35.4-3.8 112.2 0 201.5 117.8 245.2 323.1C984.6 684.8 929.1 863 815 887.3c-8.4 1.8-17.1 2.7-25.7 2.7-76.1 0-155.2-69.8-208.6-183.1H451.4C398 820.2 318.8 890 242.8 890z m89.4-690.4c-115 0-172.7 158-200.8 290.5-37.1 174.4 6.1 337.6 94.3 356.4 5.6 1.2 11.3 1.8 17 1.8 61.1 0 130.3-67 176.2-170.7 3.3-7.5 10.8-12.4 19-12.4h156c8.2 0 15.7 4.9 19 12.4C663.1 791 741.5 860.2 806.2 846.5c88.2-18.8 131.4-182 94.3-356.4C861.9 308.4 785.5 200 696.1 200c-8.7 0-17.7 1-26.7 2.9-31.9 6.8-57.4 24-75.7 51-3.9 5.7-10.3 9.2-17.2 9.2H459c-6.8 0-13.2-3.4-17.1-9-18.7-27.1-44.6-43.8-79.3-51.2-10.4-2.2-20.6-3.3-30.4-3.3z"  /><path d="M640.3 513.5c8.8 0 16.9-4.7 21.4-12.3 4.4-7.6 4.4-17 0-24.7-4.4-7.6-12.5-12.3-21.4-12.3-13.6 0-24.7 11-24.7 24.7 0 13.6 11.1 24.6 24.7 24.6zM788.2 513.5c8.8 0 17-4.7 21.4-12.3 4.4-7.6 4.4-17 0-24.7-4.4-7.6-12.5-12.3-21.4-12.3-13.6 0-24.6 11-24.6 24.7 0 13.6 11 24.6 24.6 24.6zM714.3 439.5c13.6 0 24.7-11 24.7-24.6 0-13.6-11-24.7-24.7-24.7s-24.7 11-24.7 24.7c0 13.6 11 24.6 24.7 24.6zM714.3 587.5c13.6 0 24.7-11 24.7-24.7 0-13.6-11-24.7-24.7-24.7s-24.7 11-24.7 24.7c0 13.6 11 24.7 24.7 24.7z"  /></svg>