<?xml version="1.0" standalone="no"?><!DOCTYPE svg PUBLIC "-//W3C//DTD SVG 1.1//EN" "http://www.w3.org/Graphics/SVG/1.1/DTD/svg11.dtd"><svg class="icon" width="200px" height="200.00px" viewBox="0 0 1024 1024" version="1.1" xmlns="http://www.w3.org/2000/svg"><path d="M842.782044 468.85545H727.729912V152.446736c0-31.754151-25.785218-57.512763-57.52402-57.512763H152.452876c-31.767454 0-57.525043 25.758612-57.525043 57.512763V871.537914c0 31.770524 25.757589 57.529136 57.525043 57.529136h690.329168c47.583643 0 86.289099-38.707503 86.2891-86.291146v-287.630331c0.001023-47.584666-38.705456-86.290123-86.2891-86.290123zM670.205892 871.537914H152.452876V152.446736h517.753016V871.537914z m201.339185-28.76201c0 15.842795-12.918192 28.76201-28.762009 28.76201H727.729912V526.380493H842.783068c15.843818 0 28.76201 12.893632 28.762009 28.764057v287.631354zM238.742999 238.735836H555.152736v57.539369H238.742999zM238.742999 411.315058H468.847264v57.540392H238.742999zM238.742999 583.909629h345.171747v57.522997H238.742999z" /></svg>