<?xml version="1.0" standalone="no"?><!DOCTYPE svg PUBLIC "-//W3C//DTD SVG 1.1//EN" "http://www.w3.org/Graphics/SVG/1.1/DTD/svg11.dtd"><svg class="icon" width="200px" height="200.00px" viewBox="0 0 1024 1024" version="1.1" xmlns="http://www.w3.org/2000/svg"><path d="M991.58 746.71l-7.17-7.22-140.48-111.65c-43.16-36-104.36-32.42-144 7.23l-61.2 61.25c-64.84-39.64-122.45-82.86-172.89-133.25S372.27 455 332.63 390.17l57.61-64.78c39.65-39.58 43.23-100.84 7.23-144.06L285.82 40.9c-36-46.8-104.42-54-151.29-18C116.17 41.79 30.11 127.35 30.11 127.35-63.5 221 69.75 473 311.07 714.3s489.64 370.94 583.25 280.9l97.26-97.26c43.23-43.22 43.23-111.64 0-151.23zM588.15 278c95.41 0.25 173.25 78.11 173.54 173.55a42.66 42.66 0 0 0 42.66 42.53h0.13A42.7 42.7 0 0 0 847 451.31c-0.42-142.22-116.43-258.2-258.61-258.61h-0.13a42.66 42.66 0 0 0-0.12 85.31z"  /><path d="M588.27 134c175.07 0 317.49 142.43 317.49 317.47a42.66 42.66 0 0 0 85.32 0c0-222.12-180.69-402.78-402.81-402.78a42.66 42.66 0 0 0 0 85.31z"  /></svg>