<?xml version="1.0" standalone="no"?><!DOCTYPE svg PUBLIC "-//W3C//DTD SVG 1.1//EN" "http://www.w3.org/Graphics/SVG/1.1/DTD/svg11.dtd"><svg class="icon" width="200px" height="200.00px" viewBox="0 0 1024 1024" version="1.1" xmlns="http://www.w3.org/2000/svg"><path d="M832.629 191.45c32.022 0 53.372 21.349 53.372 53.372v373.603c0 32.022-21.349 53.372-53.372 53.372h-640.463c-32.022 0-53.372-21.349-53.372-53.372v-373.603c0-32.022 21.349-53.372 53.372-53.372h640.463zM832.629 138.077h-640.463c-58.708 0-106.747 48.035-106.747 106.745v373.603c0 58.708 48.035 106.747 106.747 106.747h640.463c58.708 0 106.745-48.035 106.745-106.747v-373.603c0-58.708-48.036-106.745-106.745-106.745v0zM619.141 831.912v-53.372h-213.487v53.372h-160.115v53.373h533.719v-53.373h-160.115zM245.538 458.309h106.745v160.116h-106.745v-160.116zM459.025 298.193h106.745v320.233h-106.745v-320.233zM672.511 404.938h106.745v213.487h-106.747v-213.487z" /></svg>